<svg width="139" height="48" viewBox="0 0 139 48" fill="none" xmlns="http://www.w3.org/2000/svg">
<g clip-path="url(#clip0_29_1407)">
<path fill-rule="evenodd" clip-rule="evenodd" d="M21.048 32.072C20.7108 32.6901 19.9363 32.9178 19.3182 32.5806C18.1914 31.9658 17.1967 31.1352 16.3909 30.136C15.5851 29.1368 14.984 27.9887 14.6219 26.7572C14.2598 25.5257 14.1438 24.2349 14.2806 22.9586C14.4173 21.6823 14.8041 20.4454 15.4189 19.3186C15.7561 18.7005 16.5306 18.4728 17.1487 18.81C17.7668 19.1472 17.9945 19.9217 17.6573 20.5398C17.2029 21.3727 16.917 22.2869 16.8159 23.2303C16.7149 24.1736 16.8006 25.1277 17.0682 26.0379C17.3358 26.9481 17.7801 27.7967 18.3757 28.5353C18.9713 29.2738 19.7065 29.8878 20.5394 30.3422C21.1575 30.6794 21.3852 31.4539 21.048 32.072Z" fill="#A8A6FE"/>
<path fill-rule="evenodd" clip-rule="evenodd" d="M27.0463 35.8639C27.1494 36.5604 26.6683 37.2087 25.9718 37.3118C22.441 37.8344 18.8473 36.933 15.9811 34.8059C13.115 32.6788 11.2112 29.5003 10.6886 25.9695C10.166 22.4388 11.0674 18.845 13.1944 15.9788C15.3215 13.1127 18.5001 11.2089 22.0308 10.6863C22.7274 10.5832 23.3756 11.0643 23.4787 11.7608C23.5818 12.4574 23.1007 13.1056 22.4042 13.2087C19.5424 13.6323 16.9661 15.1754 15.2421 17.4985C13.518 19.8216 12.7874 22.7344 13.211 25.5962C13.6346 28.4579 15.1776 31.0342 17.5007 32.7583C19.8238 34.4823 22.7367 35.2129 25.5984 34.7894C26.295 34.6863 26.9432 35.1673 27.0463 35.8639Z" fill="#9481F9"/>
<path fill-rule="evenodd" clip-rule="evenodd" d="M39.7914 25.9937C40.4807 26.1375 40.9229 26.8129 40.7791 27.5021C40.0867 30.8208 38.4257 33.8597 36.0062 36.2344C33.5868 38.6091 30.5174 40.213 27.1864 40.8433C23.8553 41.4736 20.4122 41.102 17.2923 39.7755C14.1725 38.4489 11.516 36.227 9.65899 33.3907C7.80192 30.5545 6.82761 27.2312 6.85927 23.8412C6.89093 20.4512 7.92713 17.1467 9.83684 14.3456C11.7466 11.5445 14.444 9.37255 17.5881 8.1045C20.7322 6.83644 24.1817 6.52919 27.5004 7.2216C28.1896 7.36541 28.6318 8.04078 28.488 8.73007C28.3442 9.41936 27.6689 9.86156 26.9796 9.71774C24.1546 9.12834 21.2182 9.38988 18.5418 10.4693C15.8655 11.5487 13.5693 13.3975 11.9437 15.7819C10.3181 18.1664 9.436 20.9793 9.40905 23.865C9.3821 26.7507 10.2115 29.5796 11.7923 31.994C13.3731 34.4083 15.6343 36.2997 18.2901 37.4289C20.9458 38.5581 23.8768 38.8745 26.7123 38.3379C29.5478 37.8014 32.1606 36.436 34.2201 34.4146C36.2797 32.3931 37.6936 29.8064 38.283 26.9813C38.4268 26.2921 39.1021 25.8499 39.7914 25.9937Z" fill="#7442F1"/>
<path fill-rule="evenodd" clip-rule="evenodd" d="M7.0071 17.2784C3.29495 26.6635 7.8938 37.2809 17.2789 40.993C26.664 44.7052 37.2814 40.1063 40.9936 30.7212C44.7057 21.3361 40.1069 10.7187 30.7218 7.00655C21.3367 3.2944 10.7192 7.89325 7.0071 17.2784ZM16.341 43.3642C5.64637 39.1341 0.405828 27.0351 4.63595 16.3405C8.86607 5.64582 20.965 0.405278 31.6597 4.6354C42.3543 8.86552 47.5949 20.9644 43.3647 31.6591C39.1346 42.3538 27.0357 47.5943 16.341 43.3642Z" fill="#5F18EB"/>
<path d="M31.6364 14.7939L33.6705 16.6663L36.334 15.9252L35.1818 18.4383L36.7098 20.7424L33.9636 20.4232L32.2444 22.5884L31.6993 19.878L29.1089 18.912L31.5182 17.5561L31.6364 14.7939Z" fill="#A8A6FE"/>
<path d="M62.7558 39.274V11.6923H54V8.28328H75.2142V11.6923H66.1971V39.274H62.7558Z" fill="#221836"/>
<path d="M83.7903 39.7167C81.8155 39.7167 80.0295 39.2002 78.4323 38.1672C76.835 37.1047 75.5718 35.6732 74.6425 33.8728C73.7132 32.0428 73.2485 29.9768 73.2485 27.6746C73.2485 25.3429 73.7277 23.2769 74.686 21.4765C75.6444 19.6465 76.9367 18.2151 78.563 17.182C80.1892 16.149 82.0043 15.6325 84.0081 15.6325C85.8376 15.6325 87.4639 16.0605 88.8869 16.9164C90.339 17.7723 91.4425 18.8792 92.1976 20.2368L92.2847 16.1195H95.5953V39.274H92.2411V35.1567C91.428 36.4553 90.2663 37.5474 88.7562 38.4328C87.2461 39.2888 85.5908 39.7167 83.7903 39.7167ZM84.5308 36.4848C86.0409 36.4848 87.3913 36.1159 88.582 35.378C89.7727 34.6106 90.702 33.5629 91.3699 32.2347C92.0669 30.9065 92.4154 29.3717 92.4154 27.6303C92.4154 25.948 92.0669 24.4427 91.3699 23.1146C90.702 21.7864 89.7727 20.7534 88.582 20.0155C87.3913 19.2481 86.0409 18.8644 84.5308 18.8644C82.9917 18.8644 81.6268 19.2481 80.4361 20.0155C79.2745 20.7534 78.3597 21.7864 77.6917 23.1146C77.0238 24.4427 76.6898 25.948 76.6898 27.6303C76.6898 29.3422 77.0238 30.877 77.6917 32.2347C78.3597 33.5629 79.2745 34.6106 80.4361 35.378C81.6268 36.1159 82.9917 36.4848 84.5308 36.4848Z" fill="#221836"/>
<path d="M101.046 39.274V16.1195H104.356L104.4 20.591C105.01 19.2038 105.939 18.038 107.188 17.0935C108.436 16.1195 109.859 15.6325 111.457 15.6325C111.95 15.6325 112.415 15.6768 112.851 15.7653C113.286 15.8539 113.649 15.9424 113.94 16.031L113.025 19.7941C112.27 19.4695 111.515 19.3071 110.76 19.3071C109.453 19.3071 108.32 19.6318 107.362 20.2811C106.404 20.9009 105.663 21.7274 105.14 22.7604C104.647 23.7934 104.4 24.9297 104.4 26.1694V39.274H101.046Z" fill="#221836"/>
<path d="M126.53 39.7167C124.294 39.7167 122.29 39.2002 120.518 38.1672C118.776 37.1047 117.396 35.6732 116.38 33.8728C115.364 32.0428 114.855 29.962 114.855 27.6303C114.855 25.3282 115.364 23.2769 116.38 21.4765C117.396 19.6465 118.776 18.2151 120.518 17.182C122.29 16.149 124.294 15.6325 126.53 15.6325C128.766 15.6325 130.755 16.149 132.498 17.182C134.269 18.2151 135.649 19.6465 136.636 21.4765C137.652 23.2769 138.161 25.3282 138.161 27.6303C138.161 29.962 137.652 32.0428 136.636 33.8728C135.649 35.6732 134.269 37.1047 132.498 38.1672C130.755 39.2002 128.766 39.7167 126.53 39.7167ZM126.53 36.5291C128.127 36.5291 129.535 36.1454 130.755 35.378C132.004 34.6106 132.977 33.5629 133.674 32.2347C134.371 30.877 134.719 29.3422 134.719 27.6303C134.719 25.9185 134.371 24.4132 133.674 23.1146C132.977 21.7864 132.004 20.7386 130.755 19.9712C129.535 19.2038 128.127 18.8201 126.53 18.8201C124.933 18.8201 123.51 19.2038 122.261 19.9712C121.012 20.7386 120.039 21.7864 119.342 23.1146C118.645 24.4427 118.297 25.948 118.297 27.6303C118.297 29.3422 118.645 30.877 119.342 32.2347C120.039 33.5629 121.012 34.6106 122.261 35.378C123.51 36.1454 124.933 36.5291 126.53 36.5291Z" fill="#221836"/>
</g>
<defs>
<clipPath id="clip0_29_1407">
<rect width="138.161" height="48" fill="white"/>
</clipPath>
</defs>
</svg>
